<svg xmlns="http://www.w3.org/2000/svg" width="112" height="112" viewBox="0 0 112 112">
  <g id="Group_2199" data-name="Group 2199" transform="translate(0 112.164) rotate(-90)">
    <g id="Ellipse_21" data-name="Ellipse 21" transform="translate(0.164)" fill="none" stroke="#fff" stroke-width="1">
      <circle cx="56" cy="56" r="56" stroke="none"/>
      <circle cx="56" cy="56" r="55.5" fill="none"/>
    </g>
    <g id="Group_1482" data-name="Group 1482" transform="translate(62.242 44.579) rotate(90)">
      <g id="Group_5" data-name="Group 5" transform="translate(0 0)">
        <path id="Path_25" data-name="Path 25" d="M23.4,5.86h0L18.564.311a.84.84,0,0,0-1.307,0,1.187,1.187,0,0,0,0,1.509L20.5,5.548H.924A1,1,0,0,0,0,6.615,1,1,0,0,0,.924,7.682H20.5L17.26,11.408a1.186,1.186,0,0,0,0,1.509.84.84,0,0,0,1.307,0l4.831-5.548h0A1.188,1.188,0,0,0,23.4,5.86Z" fill="#fff"/>
      </g>
    </g>
  </g>
</svg>