<svg xmlns="http://www.w3.org/2000/svg" width="536.685" height="346.044" viewBox="0 0 536.685 346.044">
  <path id="Path_6193" data-name="Path 6193" d="M616.041,1200.467l-46.392,42.908,8.9-42.908H449.6L403.13,1243.45l8.911-42.983H283.1l-46.472,42.983-6.688,32.233,46.478-42.977-64.43,310.8h81.524a58.166,58.166,0,0,0,57-46.275l45.939-221.553,46.473-42.977-64.428,310.8h81.523a58.166,58.166,0,0,0,57-46.275l45.953-221.631,46.394-42.9-64.429,310.8h81.522a58.166,58.166,0,0,0,57-46.275l61.532-296.769Z" transform="translate(-210.142 -1198.967)" fill="none" stroke="#fff" stroke-width="3"/>
</svg>