<svg xmlns="http://www.w3.org/2000/svg" width="136.023" height="136.023" viewBox="0 0 136.023 136.023">
  <g id="play" transform="translate(0)">
    <g id="Group_2200" data-name="Group 2200" transform="translate(0)">
      <path id="Path_6182" data-name="Path 6182" d="M68.011,129.222A61.21,61.21,0,1,0,6.8,68.011,61.21,61.21,0,0,0,68.011,129.222Zm0,6.8A68.011,68.011,0,1,0,0,68.011,68.012,68.012,0,0,0,68.011,136.023Z" fill-rule="evenodd"/>
    </g>
    <g id="Group_2201" data-name="Group 2201" transform="translate(47.607 38.58)">
      <path id="Path_6183" data-name="Path 6183" d="M104.409,83.186,73.134,62.336v41.7Zm6.319-3.961a4.761,4.761,0,0,1,0,7.923L73.734,111.811a4.761,4.761,0,0,1-7.4-3.962V58.523a4.761,4.761,0,0,1,7.4-3.961Z" transform="translate(-66.332 -53.755)" fill-rule="evenodd"/>
    </g>
  </g>
</svg>