<svg xmlns="http://www.w3.org/2000/svg" width="25.485" height="39" viewBox="0 0 25.485 39">
  <path id="_75363" data-name="75363" d="M86.1,0H83.108A11.134,11.134,0,0,0,72.083,11.47V27.529A11.135,11.135,0,0,0,83.108,39H86.1A11.483,11.483,0,0,0,97.568,27.529V11.47A11.482,11.482,0,0,0,86.1,0ZM84.71,6.011h.231a.657.657,0,0,1,.656.656v4.671a.657.657,0,0,1-.656.656H84.71a.657.657,0,0,1-.656-.656V6.667A.657.657,0,0,1,84.71,6.011ZM96.069,27.529A9.981,9.981,0,0,1,86.1,37.5H83.108a9.652,9.652,0,0,1-9.525-9.971V11.47A9.651,9.651,0,0,1,83.108,1.5h.959V4.609a2.16,2.16,0,0,0-1.513,2.058v4.671A2.16,2.16,0,0,0,84.067,13.4v3.859a.75.75,0,0,0,1.5,0V13.4A2.16,2.16,0,0,0,87.1,11.339V6.667A2.16,2.16,0,0,0,85.566,4.6V1.5H86.1a9.981,9.981,0,0,1,9.969,9.97Z" transform="translate(-72.083)" fill="#fff"/>
</svg>